<svg height="213.782892" viewBox="0 0 334.5 153.1" width="467.764277" xmlns="http://www.w3.org/2000/svg"><path d="m163.4 656.8v123.1m214.5-123.1v123.1m-183.4-123.1v123.4m214.6-123.4v122.8m-244.6-92.6h244.1m-244.1 62.8h244.1m-244.1 30.7h244.1m-244.1-124.9h244.1m-245.2 0" fill="none"/><path d="m172 50.1c0 .5 0 1 .1 1.4s.2.8.5 1.1c.2.3.5.5.9.7s.9.3 1.5.3c.7 0 1.3-.2 1.9-.7.6-.4.8-1.1.8-2.1 0-.5-.1-.9-.2-1.3s-.4-.7-.7-1-.7-.6-1.2-.8-1.1-.5-1.9-.7c-1-.3-1.9-.7-2.6-1.1s-1.3-.9-1.8-1.4-.8-1.1-1.1-1.8c-.2-.7-.3-1.5-.3-2.4 0-2.2.6-3.8 1.8-4.9s2.9-1.6 5.1-1.6c1 0 1.9.1 2.8.3.8.2 1.6.6 2.2 1.1s1.1 1.1 1.4 1.9.5 1.7.5 2.7v.6h-4.3c0-1.1-.2-1.9-.6-2.4-.4-.6-1-.9-1.9-.9-.5 0-.9.1-1.2.2s-.6.3-.8.6c-.2.2-.3.5-.4.8s-.1.6-.1 1c0 .7.1 1.3.4 1.7.3.5.9.9 1.9 1.3l3.5 1.5c.9.4 1.6.8 2.1 1.2s1 .8 1.3 1.3.5 1 .7 1.5c.1.6.2 1.2.2 1.9 0 2.4-.7 4.1-2 5.1-1.4 1.1-3.3 1.6-5.7 1.6-2.5 0-4.3-.6-5.4-1.7s-1.6-2.7-1.6-4.7v-.9h4.5v.6zm12.8-15.9h4.5v22.3h-4.5zm18.4 15.2h.1v-15.2h4.1v22.2h-5.1l-5.5-15.5v15.5h-4.2v-22.2h5.2zm17.1-9.9c-.1-.4-.2-.8-.4-1.2s-.5-.7-.8-.9-.7-.4-1.2-.4c-1.1 0-1.9.6-2.3 1.8-.5 1.2-.7 3.2-.7 6 0 1.3 0 2.5.1 3.6s.2 2 .4 2.8.5 1.3.9 1.7.9.6 1.6.6c.3 0 .6-.1.9-.2s.6-.4.9-.7.5-.7.7-1.1.3-1 .3-1.6v-2.3h-3v-3.3h7.3v12h-3.3v-2.1h-.1c-.5.9-1.2 1.5-1.9 1.9-.8.4-1.7.5-2.7.5-1.4 0-2.5-.2-3.3-.7-.9-.5-1.5-1.2-2-2.2s-.8-2.2-1-3.7-.3-3.2-.3-5.1.1-3.5.4-4.9c.2-1.4.6-2.6 1.2-3.5s1.4-1.7 2.3-2.1c1-.5 2.2-.7 3.6-.7 2.5 0 4.2.6 5.3 1.8s1.6 3 1.6 5.2h-4.3c-.1-.3-.1-.7-.2-1.2m16.9 8.6-2.1-10h-.1l-2.2 10zm.5-13.9 5.9 22.3h-4.6l-1-4.7h-6l-1 4.7h-4.7l5.9-22.3zm14 10.1c.9 0 1.6-.3 2.2-.8.5-.5.8-1.4.8-2.5s-.2-2-.7-2.6-1.3-.9-2.4-.9h-1.9v6.8zm1.4-10.1c1.1 0 2.1.2 2.9.6s1.4.9 1.9 1.5.8 1.3 1 2.1.3 1.6.3 2.4c0 1.1-.2 2.1-.5 3s-.8 1.5-1.4 2.1c-.6.5-1.4.9-2.2 1.2-.9.3-1.8.4-2.9.4h-2.4v8.9h-4.5v-22.2zm12.4 14.9c.1 1 .2 1.9.4 2.6s.5 1.1.9 1.4.9.5 1.6.5 1.2-.2 1.6-.5.7-.8.9-1.4c.2-.7.4-1.5.4-2.6.1-1 .1-2.3.1-3.8s0-2.8-.1-3.8-.2-1.9-.4-2.6-.5-1.2-.9-1.5-.9-.5-1.6-.5-1.2.2-1.6.5-.7.8-.9 1.5-.4 1.5-.4 2.6c-.1 1-.1 2.3-.1 3.8s0 2.8.1 3.8m-4.4-8.4c.2-1.4.5-2.6 1-3.7.5-1 1.3-1.8 2.3-2.4s2.3-.9 4-.9 3 .3 4 .9 1.8 1.4 2.3 2.4.9 2.2 1 3.7c.2 1.4.2 3 .2 4.7s-.1 3.3-.2 4.7c-.2 1.4-.5 2.6-1 3.6s-1.3 1.8-2.3 2.3-2.3.8-4 .8-3-.3-4-.8-1.8-1.3-2.3-2.3-.9-2.2-1-3.6c-.2-1.4-.2-3-.2-4.7 0-1.8.1-3.3.2-4.7m24 3.2c1.1 0 1.9-.3 2.5-.8s.9-1.4.9-2.6c0-2.1-1-3.1-3.1-3.1h-2.1v6.4h1.8zm1.9-9.7c1.9 0 3.3.5 4.4 1.4 1 .9 1.6 2.4 1.6 4.3 0 1.5-.3 2.7-.9 3.7-.6.9-1.5 1.6-2.8 1.8v.1c1.1.2 1.9.5 2.5 1.1.5.6.8 1.5 1 2.7 0 .4.1.9.1 1.4s0 1 .1 1.6c0 1.2.1 2.1.2 2.7s.4 1 .8 1.3v.2h-4.9c-.2-.3-.4-.7-.4-1.1-.1-.4-.1-.8-.1-1.3l-.1-4.3c0-.9-.3-1.6-.7-2.1s-1.1-.7-2-.7h-2.4v9.4h-4.5v-22.2zm21.5 3.7h-8v5.2h7.5v3.7h-7.5v6h8.3v3.6h-12.8v-22.2h12.5zm-139.9 28.7h4.5v22.3h-4.5zm18.5 15.2v-15.2h4.1v22.2h-5.1l-5.5-15.6v15.6h-4.1v-22.2h5.1zm10.9.7c0 .5 0 1 .1 1.4s.2.8.5 1.1c.2.3.5.5.9.7s.9.3 1.5.3c.7 0 1.3-.2 1.9-.7.6-.4.8-1.1.8-2.1 0-.5-.1-.9-.2-1.3s-.4-.7-.7-1-.7-.6-1.2-.8-1.1-.5-1.9-.7c-1-.3-1.9-.7-2.6-1.1s-1.3-.9-1.8-1.4-.8-1.1-1.1-1.8c-.2-.7-.3-1.5-.3-2.4 0-2.2.6-3.8 1.8-4.9s2.9-1.6 5-1.6c1 0 1.9.1 2.8.3.8.2 1.6.6 2.2 1.1s1.1 1.1 1.4 1.9.5 1.7.5 2.7v.6h-4.3c0-1.1-.2-1.9-.6-2.4-.4-.6-1-.9-1.9-.9-.5 0-.9.1-1.2.2s-.6.3-.8.6c-.2.2-.3.5-.4.8s-.1.6-.1 1c0 .7.1 1.3.4 1.7.3.5.9.9 1.9 1.3l3.5 1.5c.9.4 1.5.8 2.1 1.2.5.4 1 .8 1.3 1.3s.5 1 .7 1.5c.1.6.2 1.2.2 1.9 0 2.3-.7 4.1-2 5.1-1.4 1.1-3.3 1.6-5.7 1.6-2.5 0-4.3-.6-5.4-1.7s-1.6-2.7-1.6-4.7v-.9h4.5v.6zm25.6-12.3h-4.9v18.6h-4.5v-18.6h-4.8v-3.6h14.2zm2.1-3.6h4.5v22.3h-4.5zm20.9 3.6h-4.9v18.6h-4.5v-18.6h-4.8v-3.6h14.2zm6.1 11.9c0 .6 0 1.1.1 1.5.1.5.2.9.4 1.2s.5.6.8.8.8.3 1.3.3 1-.1 1.3-.3.6-.5.8-.8.3-.7.4-1.2.1-1 .1-1.5v-15.5h4.5v15.5c0 1.4-.2 2.6-.6 3.5s-.9 1.7-1.6 2.2-1.4.9-2.3 1.1-1.7.3-2.6.3-1.8-.1-2.7-.3-1.6-.5-2.3-1-1.2-1.2-1.6-2.2c-.4-.9-.6-2.1-.6-3.6v-15.5h4.5v15.5zm25.6-11.9h-4.9v18.6h-4.5v-18.6h-4.8v-3.6h14.2zm14.4 0h-8v5.3h7.5v3.7h-7.5v5.9h8.3v3.7h-12.8v-22.2h12.5zm14.1 11.3c.1 1.1.2 1.9.4 2.6s.5 1.1.9 1.4.9.5 1.6.5 1.2-.2 1.6-.5.7-.8.9-1.4c.2-.7.4-1.5.4-2.6.1-1 .1-2.3.1-3.8s0-2.8-.1-3.8-.2-1.9-.4-2.6-.5-1.1-.9-1.5c-.4-.3-.9-.5-1.6-.5s-1.2.2-1.6.5-.7.8-.9 1.5-.4 1.5-.4 2.6c-.1 1-.1 2.3-.1 3.8s.1 2.8.1 3.8m-4.3-8.5c.2-1.4.5-2.6 1-3.7.5-1 1.3-1.8 2.3-2.4s2.3-.9 4-.9 3 .3 4 .9 1.8 1.4 2.3 2.4.9 2.2 1 3.7c.2 1.4.2 3 .2 4.7s-.1 3.3-.2 4.7c-.2 1.4-.5 2.6-1 3.6s-1.3 1.8-2.3 2.3-2.3.8-4 .8-3-.3-4-.8-1.8-1.3-2.3-2.3-.9-2.2-1-3.6c-.2-1.4-.2-3-.2-4.7-.1-1.7 0-3.2.2-4.7m30-6.4v3.6h-8v5.3h7.5v3.7h-7.5v9.6h-4.5v-22.2zm-151 36h-4.9v18.6h-4.5v-18.6h-4.9v-3.6h14.3zm14.3 0h-7.9v5.3h7.5v3.7h-7.5v5.9h8.2v3.7h-12.7v-22.2h12.4zm11.5.3c-.4-.7-1.1-1.1-2.1-1.1-.6 0-1 .2-1.4.5s-.7.8-.9 1.5-.4 1.6-.4 2.7c-.1 1.1-.1 2.4-.1 4 0 1.7.1 3 .2 4.1s.3 1.8.5 2.4.5 1 .9 1.2.8.3 1.3.3c.4 0 .8-.1 1.1-.2s.6-.4.9-.8.4-1 .6-1.7c.1-.7.2-1.7.2-2.9h4.5c0 1.2-.1 2.3-.3 3.4s-.5 2-1 2.8-1.2 1.4-2.2 1.9c-.9.5-2.1.7-3.6.7-1.7 0-3-.3-4-.8s-1.8-1.3-2.3-2.3-.9-2.2-1-3.6c-.2-1.4-.2-3-.2-4.7s.1-3.2.2-4.7c.2-1.4.5-2.6 1-3.7.5-1 1.3-1.8 2.3-2.4s2.3-.9 4-.9c1.6 0 2.9.3 3.8.8s1.6 1.2 2.1 2 .7 1.7.9 2.6c.1.9.2 1.8.2 2.6h-4.5c-.1-1.7-.3-2.9-.7-3.7m12.3-3.9v8.5h5.2v-8.5h4.5v22.2h-4.5v-9.9h-5.2v9.9h-4.5v-22.2zm24.1 15.2h.1v-15.2h4.1v22.2h-5.1l-5.5-15.6v15.6h-4.2v-22.2h5.2zm11.3-.3c.1 1 .2 1.9.4 2.6s.5 1.1.9 1.4.9.5 1.6.5 1.2-.2 1.6-.5.7-.8.9-1.4c.2-.7.4-1.5.4-2.6.1-1 .1-2.3.1-3.8s0-2.8-.1-3.8-.2-1.9-.4-2.6-.5-1.1-.9-1.4-.9-.5-1.6-.5-1.2.2-1.6.5-.7.8-.9 1.4c-.2.7-.4 1.5-.4 2.6-.1 1-.1 2.3-.1 3.8s0 2.8.1 3.8m-4.4-8.5c.2-1.4.5-2.6 1-3.7.5-1 1.3-1.8 2.3-2.4s2.3-.9 4-.9 3 .3 4 .9 1.8 1.4 2.3 2.4.9 2.2 1 3.7c.2 1.4.2 3 .2 4.7s-.1 3.3-.2 4.7c-.2 1.4-.5 2.6-1 3.6s-1.3 1.8-2.3 2.3-2.3.8-4 .8-3-.3-4-.8-1.8-1.3-2.3-2.3-.9-2.2-1-3.6c-.2-1.4-.2-3-.2-4.7s.1-3.2.2-4.7m17.9-6.4h4.5v18.5h8v3.7h-12.5zm18.4 14.9c.1 1 .2 1.9.4 2.6s.5 1.1.9 1.4.9.5 1.6.5 1.2-.2 1.6-.5.7-.8.9-1.4c.2-.7.4-1.5.4-2.6.1-1 .1-2.3.1-3.8s0-2.8-.1-3.8-.2-1.9-.4-2.6-.5-1.1-.9-1.4-.9-.5-1.6-.5-1.2.2-1.6.5-.7.8-.9 1.4c-.2.7-.4 1.5-.4 2.6-.1 1-.1 2.3-.1 3.8s.1 2.8.1 3.8m-4.3-8.5c.2-1.4.5-2.6 1-3.7.5-1 1.3-1.8 2.3-2.4s2.3-.9 4-.9 3 .3 4 .9 1.8 1.4 2.3 2.4.9 2.2 1 3.7c.2 1.4.2 3 .2 4.7s-.1 3.3-.2 4.7c-.2 1.4-.5 2.6-1 3.6s-1.3 1.8-2.3 2.3-2.3.8-4 .8-3-.3-4-.8-1.8-1.3-2.3-2.3-.9-2.2-1-3.6c-.2-1.4-.2-3-.2-4.7-.1-1.7 0-3.2.2-4.7m27.3-1.1c-.1-.4-.2-.8-.5-1.2-.2-.4-.5-.7-.8-.9s-.7-.4-1.2-.4c-1.1 0-1.9.6-2.3 1.8-.5 1.2-.7 3.2-.7 6 0 1.3 0 2.5.1 3.6s.2 2 .5 2.8c.2.8.5 1.3.9 1.7s.9.6 1.6.6c.3 0 .6-.1.9-.2s.6-.4.9-.7.5-.7.7-1.1c.2-.5.3-1 .3-1.6v-2.3h-3v-3.3h7.3v12h-3.3v-2.1h-.1c-.5.9-1.2 1.5-1.9 1.9-.8.4-1.7.5-2.7.5-1.4 0-2.5-.2-3.4-.7s-1.5-1.2-2-2.2-.8-2.2-1-3.7-.3-3.2-.3-5.1.1-3.5.4-4.9c.2-1.4.6-2.6 1.2-3.5s1.4-1.7 2.3-2.1c1-.5 2.2-.7 3.6-.7 2.5 0 4.2.6 5.3 1.8s1.6 3 1.6 5.2h-4.3c0-.4 0-.8-.1-1.2m14.1 3.3 3.1-8.6h4.9l-5.8 13.5v8.7h-4.4v-8.7l-5.8-13.5h5z"/><path d="m18.7 6.2h127v140.8h-127z" fill="#ee3124" transform="matrix(.172187 -.98506428 .98506428 .172187 -7.304631 144.371782)"/><path d="m13.6 15.4h136.7v124.4h-136.7z" fill="#fff"/><path d="m91.8 56.1v58.9h-15.9v-56.1zm58.7-15.7v-25.3h-137.2v88.5h30.1c1.2 0 2.5-.1 3.8-.3 1.6-.2 3.1-.7 4.6-1.4 1.4-.7 2.6-1.6 3.5-2.8s1.4-2.7 1.4-4.5c0-2-.6-3.5-1.9-4.8-1.3-1.2-2.9-2.2-4.9-3s-4.3-1.5-6.9-2.1-5.2-1.3-7.8-2c-2.7-.7-5.3-1.5-7.9-2.5s-4.9-2.2-6.9-3.8-3.7-3.5-4.9-5.8c-1.3-2.3-1.9-5.2-1.9-8.5 0-3.7.8-6.9 2.4-9.7 1.6-2.7 3.7-5 6.2-6.8 2.6-1.8 5.5-3.2 8.7-4.1 2.7-.7 5.4-1.1 8-1.3h32.1l-1.9 12.3h-30c-1 .1-1.9.2-2.9.4-1.3.3-2.5.7-3.5 1.4s-1.9 1.5-2.6 2.5-1 2.3-1 3.9c0 1.4.3 2.6.8 3.4.5.9 1.6 1.7 3.2 2.4s3.8 1.5 6.6 2.2 6.5 1.7 11 2.8c1.3.3 3.2.8 5.6 1.5s4.8 1.8 7.1 3.4c2.4 1.6 4.4 3.6 6.1 6.2s2.6 5.9 2.6 10c0 3.3-.6 6.4-1.9 9.2s-3.2 5.3-5.7 7.3c-2.5 2.1-5.7 3.7-9.4 4.8-3.4 1-7.3 1.6-11.7 1.7h-30.1v24.5h137.2v-86.3h-20.3v61.8h-15.9v-61.8h-16.6l2.7-13.4z"/><path d="m92.6 45.9c0 4.4-3.6 8-8 8s-8-3.6-8-8 3.6-8 8-8 8 3.6 8 8" fill="#ee3124"/></svg>